<svg xmlns="http://www.w3.org/2000/svg" xmlns:xlink="http://www.w3.org/1999/xlink" width="2036" height="1018" viewBox="0 0 2036 1018">
  <defs>
    <linearGradient id="linear-gradient" x1="0.5" x2="0.5" y2="1" gradientUnits="objectBoundingBox">
      <stop offset="0" stop-color="#338bc1"/>
      <stop offset="0.573" stop-color="#4a9da2"/>
      <stop offset="1" stop-color="#69b578"/>
    </linearGradient>
    <clipPath id="clip-banner_size">
      <rect width="2036" height="1018"/>
    </clipPath>
  </defs>
  <g id="banner_size" data-name="banner size" clip-path="url(#clip-banner_size)">
    <rect width="2036" height="1018" fill="#13293d"/>
    <text id="FRESHMusicPlayer" transform="translate(511 571)" fill="#fff" font-size="138" font-family="IBMPlexSans-SemiBold, IBM Plex Sans" font-weight="600"><tspan x="0" y="0">FRESHMusicPlayer</tspan></text>
    <g id="Group_1" data-name="Group 1" transform="translate(352.616 260.556) rotate(8)">
      <g id="Union_1" data-name="Union 1" fill="url(#linear-gradient)">
        <path d="M0,257.495c0-36.063,31.028-65.3,69.3-65.3a72.994,72.994,0,0,1,23.561,3.871V5.288A5,5,0,0,1,96.553.462,4.983,4.983,0,0,1,98.655,0H201.624a5,5,0,0,1,5,5V99.156a5,5,0,0,1-5,5H138.533v150.3q.074,1.512.074,3.039c0,36.063-31.028,65.3-69.3,65.3S0,293.557,0,257.495Z" stroke="none"/>
        <path d="M 69.3035888671875 316.7922058105469 C 104.2093124389648 316.7922058105469 132.6072235107422 290.1913757324219 132.6072235107422 257.4945068359375 C 132.6072235107422 256.5732421875 132.5848083496094 255.6585998535156 132.5334014892578 254.4559631347656 L 132.5334014892578 104.1561050415039 L 132.5334014892578 98.15610504150391 L 138.5334014892578 98.15610504150391 L 200.6238098144531 98.15610504150391 L 200.6238098144531 5.99908447265625 L 99.07762908935547 5.904966354370117 L 98.86472320556641 6.003715515136719 L 98.86472320556641 196.0673370361328 L 98.86472320556641 204.4490966796875 L 90.93045043945313 201.7470092773438 C 84.01335906982422 199.3912811279297 76.73699951171875 198.1968231201172 69.3035888671875 198.1968231201172 C 34.39785766601563 198.1968231201172 5.999995708465576 224.7976531982422 5.999995708465576 257.4945068359375 C 5.999995708465576 290.1913757324219 34.39785766601563 316.7922058105469 69.3035888671875 316.7922058105469 M 69.3035888671875 322.7922058105469 C 31.02840423583984 322.7922058105469 -4.183682449365733e-06 293.5575256347656 -4.183682449365733e-06 257.4945068359375 C -4.183682449365733e-06 221.4315185546875 31.02840423583984 192.1968231201172 69.3035888671875 192.1968231201172 C 77.57585906982422 192.1968231201172 85.50954437255859 193.5624237060547 92.86472320556641 196.0673370361328 L 92.86472320556641 5.288421154022217 C 92.86472320556641 2.980466604232788 94.42822265625 1.038193821907043 96.55317687988281 0.4618756473064423 C 97.19217681884766 0.1655119955539703 97.90440368652344 1.199618236569222e-05 98.65531158447266 1.199618236569222e-05 L 201.6243133544922 1.199618236569222e-05 C 204.385498046875 1.199618236569222e-05 206.6238098144531 2.238284826278687 206.6238098144531 5.000421047210693 L 206.6238098144531 99.15569305419922 C 206.6238098144531 101.9177856445313 204.385498046875 104.1561050415039 201.6243133544922 104.1561050415039 L 138.5334014892578 104.1561050415039 L 138.5334014892578 254.4559631347656 C 138.5824432373047 255.4636535644531 138.6072235107422 256.4754333496094 138.6072235107422 257.4945068359375 C 138.6072235107422 293.5575256347656 107.5788116455078 322.7922058105469 69.3035888671875 322.7922058105469 Z" stroke="none" fill="rgba(255,255,255,0.56)"/>
      </g>
    </g>
    <text id="by_Squid_Grill_and_open_source_contributors_" data-name="by Squid Grill (and open source contributors)" transform="translate(1560 1012)" fill="#fff" font-size="23" font-family="IBMPlexSans-SemiBold, IBM Plex Sans" font-weight="600"><tspan x="0" y="0">by Squid Grill (and open source contributors)</tspan></text>
  </g>
</svg>
