<svg xmlns="http://www.w3.org/2000/svg" xmlns:xlink="http://www.w3.org/1999/xlink" width="512" height="512" viewBox="0 0 512 512">
  <defs>
    <linearGradient id="linear-gradient" x1="0.5" x2="0.5" y2="1" gradientUnits="objectBoundingBox">
      <stop offset="0" stop-color="#338bc1"/>
      <stop offset="0.573" stop-color="#4a9da2"/>
      <stop offset="1" stop-color="#69b578"/>
    </linearGradient>
    <clipPath id="clip-custom_1">
      <rect width="512" height="512"/>
    </clipPath>
  </defs>
  <g id="custom_1" data-name="custom – 1" clip-path="url(#clip-custom_1)">
    <g id="Group_2" data-name="Group 2" transform="translate(138.616 0.556) rotate(8)">
      <g id="Union_1" data-name="Union 1" fill="url(#linear-gradient)">
        <path d="M0,378.269c0-52.978,45.582-95.925,101.81-95.925a107.236,107.236,0,0,1,34.613,5.686V5.423A5,5,0,0,1,140.3.549,4.978,4.978,0,0,1,142.583,0H298.539a5,5,0,0,1,5,5V148.01a5,5,0,0,1-5,5H203.512v220.8q.108,2.216.108,4.458t-.109,4.477c0,.11-.008.22-.017.329-2.655,50.747-47.165,91.119-101.684,91.119C45.582,474.194,0,431.247,0,378.269Z" stroke="none"/>
        <path d="M 101.8098297119141 468.19384765625 C 152.9623718261719 468.19384765625 194.9954986572266 430.6674499511719 197.5178375244141 382.4541015625 C 197.5853729248047 381.0673828125 197.61962890625 379.6715698242188 197.61962890625 378.2691040039063 C 197.61962890625 376.8727111816406 197.585693359375 375.4831848144531 197.5116271972656 373.8115844726563 L 197.5116271972656 153.0089721679688 L 197.5116271972656 147.0089721679688 L 203.5116271972656 147.0089721679688 L 297.5394287109375 147.0089721679688 L 297.5394287109375 5.999247074127197 L 143.0434265136719 5.886708736419678 L 142.4228973388672 6.205196857452393 L 142.4228973388672 288.030517578125 L 142.4228973388672 296.4123229980469 L 134.4886322021484 293.7101745605469 C 124.0340347290039 290.1497192382813 113.0392990112305 288.3444519042969 101.8098297119141 288.3444519042969 C 48.98009872436523 288.3444519042969 6.000032424926758 328.6845092773438 6.000032424926758 378.2691040039063 C 6.000032424926758 427.8537902832031 48.98009872436523 468.19384765625 101.8098297119141 468.19384765625 M 101.8098297119141 474.19384765625 C 45.58229827880859 474.19384765625 3.243001265218481e-05 431.2467041015625 3.243001265218481e-05 378.2691040039063 C 3.243001265218481e-05 325.29150390625 45.58229827880859 282.3444519042969 101.8098297119141 282.3444519042969 C 113.9621658325195 282.3444519042969 125.6178359985352 284.3507080078125 136.4228973388672 288.030517578125 L 136.4228973388672 5.423441886901855 C 136.4228973388672 3.046775341033936 138.0810394287109 1.056975245475769 140.3036346435547 0.5487752556800842 C 140.9872283935547 0.1979085654020309 141.7620391845703 -2.476399822626263e-05 142.5834350585938 -2.476399822626263e-05 L 298.5390319824219 -2.476399822626263e-05 C 301.3002319335938 -2.476399822626263e-05 303.5394287109375 2.239175319671631 303.5394287109375 5.000375270843506 L 303.5394287109375 148.0095062255859 C 303.5394287109375 150.7707061767578 301.3002319335938 153.0089721679688 298.5390319824219 153.0089721679688 L 203.5116271972656 153.0089721679688 L 203.5116271972656 373.8115844726563 C 203.5832977294922 375.2887878417969 203.61962890625 376.7752380371094 203.61962890625 378.2691040039063 C 203.61962890625 379.7694396972656 203.5829620361328 381.2625732421875 203.5106964111328 382.7460327148438 C 203.5086975097656 382.8565673828125 203.5030975341797 382.9663696289063 203.4940338134766 383.0749816894531 C 200.8386383056641 433.8215637207031 156.3291015625 474.19384765625 101.8098297119141 474.19384765625 Z" stroke="none" fill="rgba(255,255,255,0.56)"/>
      </g>
    </g>
  </g>
</svg>
